<svg id="Capa_1" enable-background="new 0 0 512 512" height="512" viewBox="0 0 512 512" width="512" xmlns="http://www.w3.org/2000/svg"><g><g><path d="m474.932 259.877c-41.737-24.782-126.658 8.927-170.268 82.439-29.418 49.588-10.662 109.562 38.905 138.993s111.173 17.174 140.591-32.414c43.61-73.512 32.509-164.236-9.228-189.018z" fill="#f1cd88"/><path d="m474.932 259.877c-4.926-2.925-10.46-5.025-16.45-6.351 30.917 34.052 35.458 113.144-3.369 178.592-26.257 44.261-78.158 58.777-124.253 40.459 3.975 3.141 8.213 6.064 12.708 8.733 49.566 29.431 111.173 17.174 140.591-32.414 43.611-73.513 32.51-164.237-9.227-189.019z" fill="#ebb34c"/><path d="m400.454 260.108 109.671 63.346c-4.497-29.191-16.903-52.717-35.193-63.577-18.693-11.1-46.05-10.457-74.478.231z" fill="#e27c48"/><path d="m499.293 287.857c-6.95-13.961-15.739-22.86-24.36-27.98-5.092-3.024-10.692-5.077-16.45-6.351 11.408 12.565 19.22 31.267 22.592 53.148l29.052 16.78c-1.877-12.17-5.32-24.527-10.834-35.597z" fill="#dd552d"/><path d="m291.972 408.257c4.884 29.249 23.171 56.174 51.596 73.052 29.247 17.366 62.684 20.212 91.229 9.444z" fill="#e27c48"/><path d="m330.861 472.577c3.904 3.084 8.34 6.139 12.708 8.733.019.011.037.021.056.032 10.521 6.24 22.097 10.855 34.022 13.401.177.038.354.072.531.108 19.676 4.091 39.22 2.469 56.62-4.097l-29.064-16.788c-23.344 8.802-49.954 8.514-74.873-1.389z" fill="#dd552d"/><path d="m501.393 411.429-9.506-30.905c-1.263-4.106-5.479-6.541-9.665-5.582l-32.587 7.463c-4.186.958-8.402-1.477-9.665-5.582l-9.833-31.965c-1.263-4.106-5.479-6.541-9.665-5.582l-32.587 7.463c-4.186.959-8.402-1.477-9.665-5.582l-9.833-31.965c-1.263-4.106-5.479-6.541-9.665-5.582l-30.735 7.039c-4.456 4.947-8.723 10.181-12.758 15.689.392.613.712 1.284.936 2.011l9.835 31.964c1.263 4.106 5.479 6.541 9.665 5.582l32.587-7.463c4.186-.958 8.402 1.477 9.665 5.582l9.833 31.965c1.263 4.106 5.479 6.541 9.665 5.582l32.587-7.463c4.186-.958 8.401 1.477 9.665 5.582l9.833 31.965c1.263 4.106 5.479 6.541 9.665 5.582l32.587-7.463c.826-.189 1.653-.242 2.458-.18 2.719-6.002 5.11-12.066 7.183-18.155z" fill="#e27c48"/><path d="m494.209 429.586c2.719-6.001 5.112-12.07 7.184-18.156l-9.506-30.905c-1.263-4.106-5.479-6.541-9.665-5.582l-4.503 1.031c-4.464 18.931-11.876 38.059-22.605 56.145-.782 1.319-1.591 2.607-2.418 3.874 1.829 1.255 4.152 1.767 6.468 1.237l32.587-7.463c.825-.191 1.652-.243 2.458-.181z" fill="#dd552d"/></g><path d="m278.787 15.227c-17.379-6.035-92.328 75.364-77.841 139.025l34.048 1.764c48.007-21.356 55.324-136.785 43.793-140.789z" fill="#ebe1dc"/><ellipse cx="29.694" cy="405.5" fill="#ebe1dc" rx="29.694" ry="29.694" transform="matrix(.995 -.099 .099 .995 -39.812 4.899)"/><path d="m377.926 59.654c-13.711-16.204-125.982 28.113-151.221 76.46-43.277-1.646-80.775 30.838-84.818 74.482-4.183 45.159 29.035 85.159 74.194 89.342 47.311 4.382 101.74 1.772 116.378-38.91 9.037-25.114-4.402-72.615-41.308-101.335 62.296-22.486 97.042-87.905 86.775-100.039z" fill="#f7f3f1"/><path d="m321.643 232.603c-8.891 42.311-62.441 52.4-109.904 54.581-17.604.809-34.154-4.006-47.95-12.831 13.245 14.124 31.496 23.659 52.293 25.585 47.311 4.383 101.74 1.772 116.378-38.91 8.107-22.531-1.891-63.071-30.679-91.913 16.356 21.77 23.409 46.61 19.862 63.488z" fill="#ebe1dc"/><path d="m312.781 349.474c-65.402-10.168-86.847-63.269-86.847-63.269l-63.737-27.116c-178.349 64.873-123.551 238.001-32.673 238.001h174.207c4.998 0 9.05-4.052 9.05-9.05v-11.954c0-24.094-19.532-43.626-43.626-43.626h-28.809c2.295-6.259 3.547-13.021 3.547-20.075 0-12.194-3.747-23.51-10.146-32.87 17.717 5.033 39.116 10.449 56.356 12.82 43.722 6.01 52.159-38.278 22.678-42.861z" fill="#f7f3f1"/><path d="m324.862 355.126c-6.4 5.898-14.596 10.035-23.062 12.304-13.223 3.543-27.162 3.099-40.816 2.102-20.902-1.527-41.714-4.292-62.29-8.275 6.793 19.352 25.155 34.775 44.579 42.645-1.306-8.949-4.639-17.24-9.525-24.388 17.717 5.033 39.117 10.449 56.356 12.82 35.999 4.949 48.071-24.198 34.758-37.208z" fill="#ebe1dc"/><path d="m260.908 212.971c-.975 0-1.966-.186-2.925-.578-3.949-1.617-5.839-6.128-4.222-10.077l3.098-7.566c1.617-3.948 6.125-5.84 10.077-4.222 3.949 1.617 5.839 6.128 4.222 10.077l-3.098 7.566c-1.223 2.989-4.108 4.8-7.152 4.8z" fill="#655e67"/><path d="m369.767 93.611c-13.761 23.619-41.224 52.576-78.615 66.082-2.314-1.804-4.718-3.532-7.217-5.177-4.24-2.79-5.721-8.296-3.359-12.789 15.543-29.575 44.43-50.451 89.191-48.116z" fill="#df646e"/><path d="m269.155 432.46h-28.809c2.638-7.197 3.899-15.058 3.462-23.266-1.591-29.867-26.094-53.961-55.981-55.094-7.252-.275-14.22.78-20.688 2.932 25.589 10.184 45.711 44.555 45.711 71.68 0 2.822-.2 5.597-.588 8.311-.889 6.233 4.093 11.764 10.388 11.764h15.461c24.094 0 43.626 19.532 43.626 43.626v4.676h21.993c4.998 0 9.05-4.052 9.05-9.05v-11.954c.001-24.093-19.531-43.625-43.625-43.625z" fill="#ebe1dc"/></g></svg>