<svg id="Capa_1" enable-background="new 0 0 512.039 512.039" height="512" viewBox="0 0 512.039 512.039" width="512" xmlns="http://www.w3.org/2000/svg"><g><g><path d="m386.614 84.734c79.979 79.979 69.323 173.687 4.953 238.057s-158.077 75.026-238.057-4.953-115.943-220.309-51.574-284.679 204.698-28.405 284.678 51.575z" fill="#fbf1cf"/></g><g><path d="m197.217 274.13c-70.697-70.697-106.986-188.538-70.002-259.399-9.304 4.856-17.808 10.958-25.278 18.428-64.37 64.37-28.405 204.698 51.574 284.677s173.687 69.323 238.057 4.953c7.471-7.47 14.207-15.34 20.173-23.534-62.407 45.44-143.826 45.572-214.524-25.125z" fill="#f7dfb7"/></g><g><g><g><ellipse cx="209.327" cy="256.584" fill="#ffa1ac" rx="30.274" ry="24.109" transform="matrix(.707 -.707 .707 .707 -120.122 223.166)"/></g><g><ellipse cx="325.361" cy="140.55" fill="#ffa1ac" rx="30.274" ry="24.109" transform="matrix(.707 -.707 .707 .707 -4.087 271.234)"/></g><g><path d="m271.505 168.209c-10.667-10.667-19.396-3.941-28.928 5.591s-16.257 18.262-5.591 28.928 27.041 11.586 36.573 2.054 8.613-25.906-2.054-36.573z" fill="#3a4351"/></g></g><g><path d="m192.553 240.153c-1.919 0-3.839-.732-5.303-2.197l-8.742-8.742c-2.929-2.929-2.929-7.678 0-10.606s7.678-2.929 10.606.001l8.742 8.742c2.929 2.929 2.929 7.678 0 10.606-1.464 1.464-3.384 2.196-5.303 2.196z" fill="#3a4351"/></g><g><path d="m301.43 131.276c-1.919 0-3.839-.732-5.303-2.196l-8.741-8.741c-2.929-2.93-2.929-7.678 0-10.607 2.929-2.928 7.678-2.928 10.606 0l8.741 8.741c2.929 2.93 2.929 7.678 0 10.607-1.465 1.464-3.384 2.196-5.303 2.196z" fill="#3a4351"/></g></g><g><path d="m103.474 250.157 215.46-215.46c-76.528-41.535-168.404-50.13-216.997-1.537s-39.999 140.469 1.537 216.997z" fill="#f6ee86"/></g><g><path d="m127.225 14.71c-9.311 4.857-17.814 10.974-25.289 18.449-48.593 48.593-39.998 140.47 1.537 216.997l43.707-43.707c-35.154-64.771-46.698-140.525-19.955-191.739z" fill="#eed076"/></g><g><path d="m101.936 33.159c-32.19 32.191-39.277 83.377-28.324 136.511 12.681-1.406 25.315-2.382 39.388-16.454 27.247-27.247 5.393-49.1 32.64-76.347 27.248-27.248 49.101-5.394 76.349-32.642 14.074-14.074 15.049-26.71 16.457-39.392-53.134-10.953-104.32-3.866-136.51 28.324z" fill="#eca0aa"/></g><g><path d="m121.367 142.793c-12.812-46.591-12.423-93.054 5.846-128.06-9.303 4.855-17.807 10.956-25.277 18.426-32.19 32.191-39.277 83.377-28.324 136.511 12.681-1.406 25.315-2.382 39.388-16.454 3.559-3.559 6.265-7.024 8.367-10.423z" fill="#e16e7e"/></g><g><ellipse cx="343.636" cy="274.859" fill="#f2bd77" rx="136.695" ry="67.785" transform="matrix(.707 -.707 .707 .707 -93.706 323.492)"/></g><g><path d="m247.339 311.971c-4.189 19.315-4.486 39.36-.36 59.546 52.647 10.76 104.35-8.488 144.589-48.727 7.471-7.471 14.207-15.34 20.173-23.534-48.053 34.989-107.379 43.104-164.402 12.715z" fill="#eda749"/></g><g><path d="m139.216 512.019 45.219-45.219c-19.904-74.076-87.516-128.61-167.875-128.61-.186 0-.371 0-.557.001-15.807.05-21.998 20.649-8.879 29.466 34.285 23.042 59.913 57.971 70.976 98.885 7.292 26.97 32.091 45.478 60.029 45.478h1.087z" fill="#6fcd90"/></g><g><path d="m496.036 338.191c-.186-.001-.371-.001-.557-.001-80.36 0-147.971 54.534-167.876 128.61l45.219 45.219h1.088c27.938 0 52.737-18.508 60.029-45.478 11.062-40.914 36.69-75.843 70.976-98.885 13.119-8.816 6.928-29.415-8.879-29.465z" fill="#8de1ce"/></g><g><path d="m485.56 224.277c-.307-.001-.613-.001-.92-.001-123.647 0-229.066 77.996-269.774 187.467l100.277 100.277h57.68c0-99.494 50.502-187.183 127.267-238.853 21.823-14.69 11.776-48.807-14.53-48.89z" fill="#6fcd90"/></g><g><path d="m139.216 512.019h175.926c0-158.916-128.827-287.744-287.744-287.744-.307 0-.614 0-.92.001-26.306.083-36.353 34.2-14.53 48.889 76.766 51.671 127.268 139.36 127.268 238.854z" fill="#8de1ce"/></g></g></svg>