<svg id="Capa_1" enable-background="new 0 0 512 512" height="512" viewBox="0 0 512 512" width="512" xmlns="http://www.w3.org/2000/svg"><g><g><path d="m441.432 264.269v-67.322h.001c-4.99-17.164-11.168-33.91-18.395-49.894l-100.379-54.436h-133.332l-100.366 54.438c-7.227 15.983-13.405 32.728-18.394 49.892h.001v67.322l-13.905 51.621c1.611 24.204 6.164 46.145 13.248 65.771l119.415 37.722h133.332l119.429-37.722c7.084-19.626 11.637-41.567 13.248-65.771z" fill="#eca0aa"/></g><g><path d="m189.327 92.617-100.366 54.438c-7.227 15.983-13.405 32.728-18.394 49.892h.001v67.322l-13.905 51.621c1.611 24.204 6.164 46.145 13.248 65.771l106.906 33.77c-18.924-31.611-29.85-71.495-29.85-119.431 0-71.863 24.552-147.564 63.801-203.383z" fill="#e16e7e"/></g><g><path d="m388.503 87.5-36.344-20v-20c-28.532-24.934-61.302-40-96.159-40s-67.627 15.066-96.159 40v20l-36.344 20c-13.177 17.912-24.807 38.04-34.536 59.555 8.459 10.146 16.79 20.445 33.703 20.445 33.331 0 33.331-40 66.662-40 33.333 0 33.333 40 66.665 40 33.334 0 33.334-40 66.667-40 33.335 0 33.335 40 66.67 40 16.916 0 25.248-10.3 33.708-20.447-9.726-21.514-21.357-41.642-34.533-59.553z" fill="#f6ee86"/></g><g><path d="m159.841 47.5v20l-36.344 20c-13.177 17.912-24.807 38.04-34.536 59.555 8.459 10.146 16.79 20.445 33.703 20.445 33.331 0 33.331-40 66.662-40 .053 0 .104.003.156.003 27.652-52.351 66.895-94.072 111.995-111.36-14.609-5.6-29.832-8.643-45.477-8.643-34.857 0-67.627 15.066-96.159 40z" fill="#eed076"/></g><g><path d="m382.587 464.5v-20l37.753-20c8.724-12.781 16.053-27.061 21.748-42.839-20.3-9.128-24.847-37.161-52.753-37.161-33.331 0-33.331 40-66.662 40-33.333 0-33.333-40-66.665-40-33.334 0-33.334 40-66.667 40-33.335 0-33.335-40-66.67-40-27.909 0-32.456 28.034-52.759 37.161 5.695 15.778 13.024 30.058 21.748 42.839l37.753 20v20c34.48 26.517 78.553 40 126.587 40s92.108-13.483 126.587-40z" fill="#f6ee86"/></g><g><path d="m155.278 363.628c-8.098-9.701-16.425-19.128-32.608-19.128-27.909 0-32.456 28.034-52.759 37.161 5.695 15.778 13.024 30.058 21.748 42.839l37.753 20v20c34.48 26.517 78.553 40 126.587 40 15.646 0 30.87-1.434 45.482-4.278-69.981-13.625-125.85-59.711-146.203-136.594z" fill="#eed076"/></g><g><path d="m123.497 87.5h265.006c-11.087-15.071-23.269-28.574-36.344-40h-192.318c-13.075 11.426-25.257 24.929-36.344 40z" fill="#c8a2c8"/></g><g><path d="m250.814 47.5h-90.973c-13.075 11.426-25.257 24.929-36.344 40h90.965c11.09-15.072 23.274-28.574 36.352-40z" fill="#b68db7"/></g><g><path d="m91.659 424.5c10.638 15.585 23.358 28.929 37.753 40h253.175c14.395-11.071 27.115-24.415 37.753-40z" fill="#c8a2c8"/></g><g><path d="m182.634 424.5h-90.975c10.638 15.585 23.358 28.929 37.753 40h90.967c-14.393-11.069-27.107-24.417-37.745-40z" fill="#b68db7"/></g><g><g><g><ellipse cx="176.355" cy="264.269" fill="#fff" rx="29.387" ry="23.403"/></g><g><ellipse cx="335.645" cy="264.269" fill="#fff" rx="29.387" ry="23.403"/></g><g><path d="m279.694 246.288c0-14.643-10.608-16.019-23.693-16.019-13.086 0-23.694 1.376-23.694 16.019s10.608 26.513 23.694 26.513c13.085-.001 23.693-11.871 23.693-26.513z" fill="#3a4351"/></g></g><g><path d="m181.268 243.829c-4.142 0-7.5-3.358-7.5-7.5v-12c0-4.142 3.358-7.5 7.5-7.5s7.5 3.358 7.5 7.5v12c0 4.142-3.358 7.5-7.5 7.5z"/></g><g><path d="m256 280.3c-17.2 0-31.193-15.258-31.193-34.013 0-23.519 21.859-23.519 31.193-23.519s31.193 0 31.193 23.519c0 18.755-13.993 34.013-31.193 34.013zm0-42.531c-15.539 0-16.193 2.611-16.193 8.519 0 10.484 7.264 19.013 16.193 19.013s16.193-8.529 16.193-19.013c0-5.908-.654-8.519-16.193-8.519z"/></g><g><path d="m330.732 243.829c-4.142 0-7.5-3.358-7.5-7.5v-12c0-4.142 3.358-7.5 7.5-7.5s7.5 3.358 7.5 7.5v12c0 4.142-3.358 7.5-7.5 7.5z"/></g></g><g><path d="m392 256c0 33.137 26.863 60 60 60 1.121 0 2.234-.037 3.34-.097.431-6.474.66-13.104.66-19.903 0-32.974-5.182-66.753-14.568-99.053-28.094 4.995-49.432 29.524-49.432 59.053z" fill="#fbf1cf"/></g><g><path d="m70.568 196.947c-9.386 32.3-14.568 66.079-14.568 99.053 0 6.799.229 13.429.66 19.903 1.106.06 2.219.097 3.34.097 33.137 0 60-26.863 60-60 0-29.529-21.338-54.058-49.432-59.053z" fill="#f7dfb7"/></g><path d="m447.462 190.853c-10.312-34.114-25.45-66.858-43.777-94.693-19.286-29.292-41.36-52.533-65.61-69.077-26.34-17.971-53.954-27.083-82.075-27.083s-55.735 9.112-82.076 27.083c-24.25 16.544-46.324 39.785-65.61 69.077-18.327 27.834-33.464 60.579-43.777 94.693-10.491 34.709-16.037 71.068-16.037 105.147 0 66.925 21.047 122.636 60.867 161.11 18.591 17.963 40.86 31.807 66.188 41.148 24.724 9.118 51.79 13.742 80.445 13.742s55.721-4.624 80.444-13.742c25.328-9.341 47.597-23.186 66.188-41.148 39.821-38.474 60.868-94.185 60.868-161.11 0-34.079-5.546-70.438-16.038-105.147zm.767 117.497c-27.193-1.941-48.729-24.67-48.729-52.35 0-23.065 15.062-43.196 36.587-50.018 8.055 29.845 12.413 60.557 12.413 90.018 0 4.169-.096 8.283-.271 12.35zm-10.353 61.622c-3.318-2.93-6.327-6.538-9.444-10.277-8.867-10.637-18.917-22.695-39.097-22.695-20.179 0-30.227 12.059-39.093 22.699-8.054 9.666-14.416 17.301-27.569 17.301s-19.516-7.635-27.571-17.301c-5.804-6.964-11.805-14.166-20.886-18.631-3.719-1.829-8.212-.295-10.04 3.421-1.828 3.717-.296 8.212 3.421 10.04 6.218 3.058 10.961 8.749 15.981 14.773 8.867 10.639 18.916 22.698 39.095 22.698s30.227-12.059 39.093-22.699c8.055-9.667 14.417-17.301 27.569-17.301 13.154 0 19.518 7.634 27.575 17.3 4.614 5.536 9.357 11.223 15.678 15.568-4.583 11.483-10.105 22.218-16.523 32.132h-320.13c-6.418-9.914-11.94-20.65-16.524-32.133 6.319-4.344 11.065-10.029 15.681-15.566 8.057-9.666 14.421-17.3 27.578-17.3 13.155 0 19.518 7.635 27.573 17.301 8.867 10.639 18.917 22.698 39.098 22.698 20.179 0 30.229-12.059 39.095-22.698 4.98-5.977 9.685-11.622 15.825-14.696 3.704-1.854 5.203-6.36 3.349-10.064s-6.361-5.204-10.064-3.349c-8.942 4.477-14.885 11.609-20.633 18.506-8.056 9.666-14.418 17.301-27.572 17.301-13.155 0-19.518-7.635-27.574-17.302-8.867-10.639-18.916-22.698-39.097-22.698s-30.231 12.058-39.1 22.696c-3.117 3.739-6.125 7.348-9.446 10.279-4.535-14.54-7.669-30.13-9.303-46.667 34.976-2.483 62.679-31.711 62.679-67.308 0-29.755-19.537-55.747-47.394-64.418 3.255-10.399 6.956-20.646 11.079-30.65 7.335 7.472 16.855 14.068 31.48 14.068 20.178 0 30.227-12.059 39.093-22.699 8.055-9.667 14.417-17.301 27.57-17.301s19.516 7.635 27.571 17.301c8.866 10.64 18.915 22.699 39.094 22.699 20.18 0 30.229-12.059 39.095-22.699 8.055-9.666 14.418-17.301 27.572-17.301 13.155 0 19.518 7.635 27.574 17.302 8.866 10.639 18.915 22.698 39.096 22.698 14.729 0 24.059-6.425 31.491-14.053 4.121 9.999 7.819 20.241 11.073 30.634-27.864 8.669-47.394 34.642-47.394 64.419 0 35.597 27.703 64.825 62.678 67.309-1.634 16.535-4.768 32.124-9.302 46.663zm-107.281-329.972h-149.19c23.711-16.379 48.989-25 74.595-25s50.884 8.621 74.595 25zm-209.752 64.408c2.121-3.222 4.278-6.349 6.461-9.408h180.356c4.142 0 7.5-3.358 7.5-7.5s-3.358-7.5-7.5-7.5h-168.886c7.626-9.282 15.555-17.627 23.73-25h186.991c8.175 7.373 16.105 15.718 23.73 25h-35.567c-4.142 0-7.5 3.358-7.5 7.5s3.358 7.5 7.5 7.5h47.037c2.182 3.059 4.339 6.187 6.461 9.408 8.538 12.967 16.246 26.909 23.054 41.495-6.895 8.094-13.221 14.097-24.88 14.097-13.155 0-19.518-7.635-27.573-17.301-8.867-10.64-18.917-22.699-39.098-22.699-20.18 0-30.229 12.059-39.095 22.699-8.055 9.666-14.418 17.301-27.572 17.301-13.153 0-19.516-7.635-27.571-17.301-8.866-10.64-18.915-22.699-39.094-22.699s-30.228 12.059-39.093 22.699c-8.055 9.666-14.417 17.301-27.569 17.301-11.677 0-17.989-6.004-24.877-14.094 6.808-14.587 14.517-28.53 23.055-41.498zm-44.93 101.575c21.519 6.824 36.587 26.969 36.587 50.017 0 27.679-21.536 50.408-48.729 52.35-.175-4.067-.271-8.181-.271-12.35 0-29.46 4.358-60.172 12.413-90.017zm180.087 291.017c-38.989 0-73.37-8.782-101.893-25h203.786c-28.523 16.218-62.904 25-101.893 25zm124.021-40h-248.042c-9.239-7.406-17.649-15.756-25.156-25h298.353c-7.506 9.244-15.916 17.594-25.155 25z"/></g></svg>