<svg id="Capa_1" enable-background="new 0 0 512 512" height="512" viewBox="0 0 512 512" width="512" xmlns="http://www.w3.org/2000/svg"><g><g><path d="m382.587 464.5v-20l37.743-19.995c8.198-12.009 15.158-25.349 20.694-40.005v-30l13.604-30c.896-9.163 1.372-18.656 1.372-28.5 0-3.325-.068-6.661-.173-10l-13.125-30 5.945-30c-2.683-13.005-6.062-25.885-10.085-38.5l-25.078-30v-30c-7.507-14.213-15.876-27.63-24.978-40h-.002l-36.344-20v-19.995c-28.535-24.931-61.304-40.005-96.16-40.005s-67.625 15.074-96.159 40.005v19.995l-36.344 20h-.003c-9.101 12.37-17.471 25.787-24.978 40v30l-25.078 30c-4.024 12.615-7.403 25.495-10.086 38.5l5.945 30-13.125 30c-.104 3.339-.172 6.675-.172 10 0 9.844.476 19.337 1.372 28.5l13.604 30v30c5.536 14.657 12.496 27.996 20.694 40.005l37.743 19.995v20h-.001c34.48 26.517 78.554 40 126.588 40s92.108-13.483 126.587-40z" fill="#c8a2c8"/></g><g><path d="m296 14.17c-12.925-4.338-26.301-6.67-40-6.67-34.856 0-67.625 15.074-96.159 40.005v19.995l-36.344 20h-.003c-9.101 12.37-17.471 25.787-24.978 40v30l-25.078 30c-4.024 12.615-7.403 25.495-10.086 38.5l5.945 30-13.125 30c-.104 3.339-.172 6.675-.172 10 0 9.844.476 19.337 1.372 28.5l13.604 30v30c5.536 14.657 12.496 27.996 20.694 40.005l37.743 19.995v20h-.001c34.48 26.517 78.554 40 126.589 40 13.699 0 27.075-1.099 40-3.281-91.29-15.412-160.001-84.997-160.001-205.219s68.711-251.191 160-281.83z" fill="#b68db7"/></g><g><path d="m91.659 424.5c10.638 15.585 23.358 28.929 37.753 40h253.175c14.395-11.071 27.115-24.415 37.753-40z" fill="#fbf1cf"/></g><g><path d="m123.497 87.5h265.006c-11.087-15.071-23.269-28.574-36.344-40h-192.318c-13.075 11.426-25.257 24.929-36.344 40z" fill="#fbf1cf"/></g><g><path d="m239.846 47.5h-80.005c-13.075 11.426-25.257 24.929-36.344 40h79.997c11.09-15.072 23.274-28.574 36.352-40z" fill="#f7dfb7"/></g><g><path d="m73.438 187.5h365.123c-6.681-20.947-15.127-41.162-25.078-60h-314.966c-9.951 18.838-18.397 39.053-25.079 60z" fill="#fbf1cf"/></g><g><path d="m70.976 384.5h370.048c6.806-18.019 11.456-38.028 13.604-60h-397.256c2.148 21.972 6.798 41.981 13.604 60z" fill="#fbf1cf"/></g><g><g><g><ellipse cx="176.443" cy="261.563" fill="#fff" rx="29.355" ry="23.377"/></g><g><ellipse cx="335.557" cy="261.563" fill="#fff" rx="29.355" ry="23.377"/></g></g><g><path d="m193.551 246.56c-4.143 0-7.5-3.358-7.5-7.5v-12c0-4.142 3.357-7.5 7.5-7.5s7.5 3.358 7.5 7.5v12c0 4.142-3.358 7.5-7.5 7.5z"/></g><g><path d="m318.448 246.56c-4.143 0-7.5-3.358-7.5-7.5v-12c0-4.142 3.357-7.5 7.5-7.5s7.5 3.358 7.5 7.5v12c0 4.142-3.357 7.5-7.5 7.5z"/></g><g><path d="m256 253.704c-8.478 0-16.54-3.672-22.118-10.074-2.722-3.123-2.396-7.86.728-10.582 3.122-2.721 7.86-2.396 10.581.727 2.729 3.132 6.669 4.928 10.81 4.928s8.08-1.796 10.81-4.928c2.721-3.124 7.458-3.448 10.581-.727s3.449 7.458.728 10.582c-5.58 6.402-13.642 10.074-22.12 10.074z"/></g></g><g><path d="m171.666 424.5h-80.007c10.638 15.585 23.358 28.929 37.753 40h79.999c-14.393-11.069-27.107-24.417-37.745-40z" fill="#f7dfb7"/></g><g><path d="m137.372 324.5h-80c2.149 21.972 6.798 41.981 13.604 60h80c-6.806-18.019-11.456-38.028-13.604-60z" fill="#f7dfb7"/></g><g><path d="m178.517 127.5h-80c-9.951 18.838-18.397 39.053-25.078 60h80c6.681-20.947 15.127-41.162 25.078-60z" fill="#f7dfb7"/></g><g><path d="m448.647 226h-30.144c-16.569 0-30 13.431-30 30 0 16.569 13.431 30 30 30h37.325c-.623-19.958-3.081-40.124-7.181-60z" fill="#fbf1cf"/></g><g><path d="m123.497 256c0-16.569-13.431-30-30-30h-30.144c-4.1 19.876-6.558 40.042-7.18 60h37.324c16.569 0 30-13.431 30-30z" fill="#f7dfb7"/></g><path d="m447.462 190.853c-10.312-34.114-25.449-66.858-43.776-94.693-19.286-29.292-41.36-52.533-65.609-69.077-26.342-17.971-53.956-27.083-82.077-27.083s-55.735 9.112-82.076 27.083c-24.249 16.544-46.323 39.785-65.609 69.077-18.327 27.834-33.465 60.579-43.776 94.693-10.493 34.709-16.039 71.068-16.039 105.147 0 66.925 21.048 122.636 60.867 161.11 18.592 17.963 40.86 31.807 66.188 41.148 24.724 9.118 51.79 13.742 80.445 13.742s55.721-4.624 80.444-13.742c25.328-9.341 47.597-23.186 66.188-41.148 39.82-38.474 60.868-94.185 60.868-161.11 0-34.079-5.546-70.438-16.038-105.147zm-11.926 186.147h-359.072c-4.919-13.995-8.492-29.029-10.624-45h380.321c-2.132 15.971-5.705 31.005-10.625 45zm-365.958-143.5h23.919c12.406 0 22.5 10.093 22.5 22.5s-10.094 22.5-22.5 22.5h-29.49c.839-14.88 2.717-29.967 5.571-45zm-5.297 83.5c-.512-6.849-.781-13.847-.781-21 0-.831.019-1.667.025-2.5h29.972c20.678 0 37.5-16.822 37.5-37.5s-16.822-37.5-37.5-37.5h-20.732c1.839-7.886 3.935-15.732 6.287-23.5h353.898c2.352 7.768 4.447 15.614 6.287 23.5h-20.732c-20.678 0-37.5 16.822-37.5 37.5s16.822 37.5 37.5 37.5h29.972c.007.833.025 1.669.025 2.5 0 7.153-.27 14.151-.781 21zm38.828-182h200.339c4.143 0 7.5-3.358 7.5-7.5s-3.357-7.5-7.5-7.5h-192.212c3.075-5.331 6.278-10.536 9.607-15.592 2.121-3.222 4.278-6.349 6.461-9.408h257.393c2.182 3.059 4.34 6.187 6.461 9.408 3.329 5.056 6.532 10.26 9.607 15.592h-67.316c-4.143 0-7.5 3.358-7.5 7.5s3.357 7.5 7.5 7.5h75.443c7.326 14.363 13.746 29.468 19.168 45h-344.119c5.422-15.532 11.842-30.637 19.168-45zm344.884 143.5h-29.49c-12.406 0-22.5-10.093-22.5-22.5s10.094-22.5 22.5-22.5h23.919c2.854 15.033 4.732 30.12 5.571 45zm-117.398-238.5h-149.19c23.711-16.379 48.989-25 74.595-25s50.884 8.621 74.595 25zm-168.09 15h186.991c8.176 7.373 16.104 15.718 23.73 25h-234.452c7.626-9.282 15.555-17.627 23.731-25zm93.495 442c-38.989 0-73.37-8.782-101.893-25h203.786c-28.523 16.218-62.904 25-101.893 25zm124.021-40h-248.042c-9.239-7.406-17.649-15.756-25.156-25h114.177c4.143 0 7.5-3.358 7.5-7.5s-3.357-7.5-7.5-7.5h-125.064c-5.072-7.834-9.587-16.178-13.521-25h347.17c-3.934 8.822-8.449 17.166-13.521 25h-165.064c-4.143 0-7.5 3.358-7.5 7.5s3.357 7.5 7.5 7.5h154.177c-7.508 9.244-15.917 17.594-25.156 25z"/></g></svg>